<?xml version="1.0" encoding="UTF-8" standalone="no"?>
<!-- Created with Inkscape (http://www.inkscape.org/) -->

<svg
   xmlns:dc="http://purl.org/dc/elements/1.1/"
   xmlns:cc="http://creativecommons.org/ns#"
   xmlns:rdf="http://www.w3.org/1999/02/22-rdf-syntax-ns#"
   xmlns:svg="http://www.w3.org/2000/svg"
   xmlns="http://www.w3.org/2000/svg"
   xmlns:xlink="http://www.w3.org/1999/xlink"
   xmlns:sodipodi="http://sodipodi.sourceforge.net/DTD/sodipodi-0.dtd"
   xmlns:inkscape="http://www.inkscape.org/namespaces/inkscape"
   version="1.2"
   width="139.53708"
   height="25.096621"
   viewBox="0 0 111.62963 20.077322"
   id="svg9209"
   inkscape:version="0.91 r13725"
   sodipodi:docname="levidrone-pcb-full.svg">
  <sodipodi:namedview
     pagecolor="#ffffff"
     bordercolor="#666666"
     borderopacity="1"
     objecttolerance="10"
     gridtolerance="10"
     guidetolerance="10"
     inkscape:pageopacity="0"
     inkscape:pageshadow="2"
     inkscape:window-width="1867"
     inkscape:window-height="1056"
     id="namedview57"
     showgrid="false"
     inkscape:zoom="6.0205091"
     inkscape:cx="68.995557"
     inkscape:cy="-17.961979"
     inkscape:window-x="53"
     inkscape:window-y="24"
     inkscape:window-maximized="1"
     inkscape:current-layer="layer1"
     fit-margin-top="0"
     fit-margin-left="0"
     fit-margin-right="0"
     fit-margin-bottom="0" />
  <title
     id="title9211">Qt Svg Document</title>
  <desc
     id="desc9213">Generated with Qt</desc>
  <metadata
     id="metadata9249">
    <rdf:RDF>
      <cc:Work
         rdf:about="">
        <dc:format>image/svg+xml</dc:format>
        <dc:type
           rdf:resource="http://purl.org/dc/dcmitype/StillImage" />
        <dc:title>Qt Svg Document</dc:title>
      </cc:Work>
    </rdf:RDF>
  </metadata>
  <defs
     id="defs9215">
    <linearGradient
       id="linearGradient9666">
      <stop
         id="stop9668"
         style="stop-color:#000000;stop-opacity:1"
         offset="0" />
      <stop
         id="stop9670"
         style="stop-color:#ffffff;stop-opacity:1"
         offset="1" />
    </linearGradient>
    <linearGradient
       x1="4817.7124"
       y1="6024.2549"
       x2="4817.7124"
       y2="1450.4585"
       id="linearGradient9672"
       xlink:href="#linearGradient9666"
       gradientUnits="userSpaceOnUse"
       gradientTransform="matrix(0.00368773,0,0,0.00368865,-0.02223041,19.904191)" />
  </defs>
  <g
     transform="matrix(0.50193204,0,0,0.50193204,-1.186677e-4,-4920.9416)"
     id="g9227"
     style="font-style:normal;font-weight:400;font-size:11px;font-family:Ubuntu;fill:#000000;fill-opacity:1;fill-rule:evenodd;stroke:none" />
  <flowRoot
     id="flowRoot3113"
     xml:space="preserve"
     style="font-style:normal;font-weight:normal;font-size:16.06184578px;line-height:125%;font-family:Sans;letter-spacing:0px;word-spacing:0px;fill:#000000;fill-opacity:1;stroke:none"><flowRegion
       id="flowRegion3115"><rect
         width="573.1958"
         height="228.0361"
         x="-47.030884"
         y="-2331.2676"
         id="rect3117" /></flowRegion><flowPara
       id="flowPara3119" /></flowRoot>  <g
     inkscape:groupmode="layer"
     id="layer1"
     inkscape:label="SilkS"
     transform="translate(-6.6868633e-5,-19.922634)">
    <path
       style="font-style:normal;font-weight:400;font-size:medium;font-family:Ubuntu;fill:url(#linearGradient9672);fill-opacity:1;fill-rule:evenodd;stroke:none"
       d="m 17.796881,39.999956 c 3.615938,-0.858942 7.340964,-1.287464 11.166843,-1.296946 1.982197,-0.156229 4.072572,-0.221599 5.866666,-1.171033 0.746415,-0.376293 1.037892,-1.347421 0.547275,-2.043208 -0.239237,-0.713984 -0.393919,0.160374 -0.690658,0.367438 -0.911418,1.057012 -2.626907,1.165819 -3.673419,0.244585 -1.487348,-1.226218 -2.24799,-3.11911 -3.09047,-4.758354 -1.277725,0.180432 -2.580265,-0.689599 -2.9156,-1.924 -0.09802,-0.273657 -0.09148,-0.65267 -0.1221,-0.8954 -3.514732,1.192286 -7.51687,1.479548 -11.2258,0.7659 -1.002479,-0.176447 -2.026555,-0.477585 -2.9674,-0.7585 0.08982,1.301105 -0.8897594,2.550823 -2.16056,2.7787 -0.2820526,0.05814 -0.588142,0.06757 -0.87822,0.0296 -0.8323688,1.742247 -1.6301819,3.642346 -3.1976882,4.857205 -1.2090199,0.988955 -3.1664114,0.53826 -3.89013528,-0.821821 -0.20565652,-0.53916 -0.52937518,0.513848 -0.57102774,0.772758 -0.13892049,1.088735 1.07202482,1.615166 1.93337492,1.879524 2.0444313,0.588793 4.1974443,0.681302 6.3053742,0.704452 3.2647021,0.108491 6.4580921,0.533195 9.5671701,1.2691"
       id="path9225"
       inkscape:connector-curvature="0" />
    <path
       style="font-style:normal;font-weight:400;font-size:medium;font-family:Ubuntu;fill:#338000;fill-opacity:1;fill-rule:evenodd;stroke:none"
       d="m 29.662005,28.395463 c 0.08619,1.57741 -2.089807,2.478806 -3.14427,1.302721 -1.175564,-1.05457 -0.275177,-3.230881 1.302396,-3.145054 0.990454,-0.02107 1.862873,0.851321 1.841874,1.842333 z"
       id="path9233"
       inkscape:connector-curvature="0" />
    <path
       style="font-style:normal;font-weight:400;font-size:medium;font-family:Ubuntu;fill:#aa0000;fill-opacity:1;fill-rule:evenodd;stroke:none"
       d="m 9.608129,28.395463 c 0.086188,1.57741 -2.0898068,2.478806 -3.1442693,1.302721 -1.1755636,-1.05457 -0.2751775,-3.230882 1.3023957,-3.145054 0.9904537,-0.02107 1.8628723,0.851322 1.8418736,1.842333 z"
       id="path9237"
       inkscape:connector-curvature="0" />
    <path
       style="font-style:normal;font-weight:400;font-size:medium;font-family:Ubuntu;fill:#5599ff;fill-opacity:1;fill-rule:evenodd;stroke:none"
       d="m 18.571304,19.948455 c -1.452112,-0.08942 -2.954076,0.06261 -4.277767,0.70084 1.225022,0.937231 1.309618,2.825649 0.372456,3.994804 -0.85841,1.215217 -2.281093,2.098646 -3.363085,2.914067 3.38106,1.111209 7.232072,1.329274 10.7633,0.5957 0.776553,-0.159479 1.546261,-0.361794 2.3014,-0.6068 -1.487198,-1.04141 -3.201618,-2.087843 -3.894241,-3.854638 -0.375328,-1.068062 -0.02725,-2.343558 0.87031,-3.043133 -0.853018,-0.410908 -1.789739,-0.615867 -2.72892,-0.70084"
       id="path9241"
       inkscape:connector-curvature="0" />
    <path
       style="font-style:normal;font-weight:400;font-size:medium;font-family:Ubuntu;fill:#808080;fill-opacity:1;fill-rule:evenodd;stroke:none"
       d="M 6.582494,31.095555 C 5.8222222,32.618837 5.1411045,34.318475 3.7392542,35.3707 2.7339772,36.129217 1.206522,35.151009 1.3336883,33.941942 c 0.1485775,-1.364879 1.4251359,-2.203613 2.4135282,-2.992937 0.4896346,-0.332567 1.0248233,-0.765976 1.5150788,-1.000534 0.3118425,0.505824 0.771363,0.906644 1.32102,1.1507"
       id="path4328"
       inkscape:connector-curvature="0" />
    <path
       style="font-style:normal;font-weight:400;font-size:medium;font-family:Ubuntu;fill:#808080;fill-opacity:1;fill-rule:evenodd;stroke:none"
       d="m 9.360176,24.846909 c -0.083986,0.272463 -0.390289,0.634914 -0.3650603,0.870578 0.5404617,0.252511 0.9873707,0.651373 1.2959703,1.1581 1.363968,-0.946742 2.923735,-1.829773 3.743488,-3.329552 0.623863,-1.09953 -0.432159,-2.649062 -1.691327,-2.348364 -1.275846,0.409124 -1.912824,1.74023 -2.5536732,2.815531 -0.1467253,0.277021 -0.2889645,0.556255 -0.4277767,0.837323"
       id="path4326"
       inkscape:connector-curvature="0" />
    <path
       style="font-style:normal;font-weight:400;font-size:medium;font-family:Ubuntu;fill:#808080;fill-opacity:1;fill-rule:evenodd;stroke:none"
       d="m 25.370234,23.25334 c 0.451558,0.787336 0.954474,1.655495 1.242666,2.464063 -0.545239,0.242686 -1.004115,0.656631 -1.3135,1.1618 -1.365807,-0.945217 -2.920104,-1.831517 -3.743489,-3.329552 -0.599678,-1.074194 0.376248,-2.58428 1.614748,-2.364176 1.034747,0.224588 1.654377,1.250013 2.19513,2.071481"
       id="path4324"
       inkscape:connector-curvature="0" />
    <path
       style="font-style:normal;font-weight:400;font-size:medium;font-family:Ubuntu;fill:#808080;fill-opacity:1;fill-rule:evenodd;stroke:none"
       d="m 29.005578,31.106403 c 0.759547,1.523865 1.442364,3.221738 2.84324,4.275145 1.006301,0.759983 2.532536,-0.219632 2.405572,-1.428758 -0.148057,-1.364204 -1.424406,-2.201296 -2.409838,-2.992937 -0.491541,-0.332101 -1.023465,-0.768536 -1.518819,-1.000534 -0.311449,0.507133 -0.776402,0.908882 -1.3246,1.1507"
       id="path9245"
       inkscape:connector-curvature="0" />
    <path
       inkscape:connector-curvature="0"
       style="font-style:normal;font-weight:800;font-size:medium;line-height:80.00000119%;font-family:'Exo 2';-inkscape-font-specification:'Exo 2 Ultra-Bold';letter-spacing:0px;word-spacing:0px;fill:#000000;fill-opacity:1;stroke:none"
       id="path3141"
       d="m 43.938964,21.3203 0,7.190578 c -9e-6,0.414796 0.226605,0.622145 0.679824,0.622145 l 3.384669,0 0.130176,2.039952 c -0.945012,0.115795 -2.473411,0.173668 -4.585206,0.173668 -0.742508,0 -1.316258,-0.197761 -1.721267,-0.593183 -0.405,-0.40516 -0.607505,-0.94047 -0.607505,-1.605932 l 0,-7.827228 2.719309,0" />
    <path
       inkscape:connector-curvature="0"
       style="font-style:normal;font-weight:800;font-size:medium;line-height:80.00000119%;font-family:'Exo 2';-inkscape-font-specification:'Exo 2 Ultra-Bold';letter-spacing:0px;word-spacing:0px;fill:#000000;fill-opacity:1;stroke:none"
       id="path3143"
       d="m 56.017075,29.234262 0.130176,1.953168 c -0.945013,0.106159 -2.59395,0.159213 -4.946817,0.159213 -0.68465,0 -1.234298,-0.192892 -1.648935,-0.578727 -0.414654,-0.395423 -0.621977,-0.916378 -0.621977,-1.562615 l 0,-5.787076 c 0,-0.646237 0.207323,-1.162324 0.621977,-1.548159 0.424283,-0.395422 0.973932,-0.593183 1.648935,-0.593183 2.352867,0 4.001804,0.05356 4.946817,0.159212 l -0.130176,1.953169 -3.746281,0 c -0.414651,0 -0.621974,0.207398 -0.621964,0.622044 l 0,1.215378 3.83306,0 0,1.866334 -3.83306,0 0,1.519198 c -10e-6,0.414646 0.207313,0.622044 0.621964,0.622044 l 3.746281,0" />
    <path
       inkscape:connector-curvature="0"
       style="font-style:normal;font-weight:800;font-size:medium;line-height:80.00000119%;font-family:'Exo 2';-inkscape-font-specification:'Exo 2 Ultra-Bold';letter-spacing:0px;word-spacing:0px;fill:#000000;fill-opacity:1;stroke:none"
       id="path3145"
       d="m 66.082699,21.3203 -2.560194,9.245086 c -0.04829,0.221754 -0.159113,0.40019 -0.332681,0.53531 -0.173578,0.13502 -0.376083,0.20253 -0.607503,0.20253 l -2.415548,0 c -0.231441,0 -0.433946,-0.06776 -0.607509,-0.20253 -0.173573,-0.13512 -0.28447,-0.313556 -0.332685,-0.53531 l -2.560195,-9.245086 2.791636,0 1.533216,6.81438 c 0.07713,0.366611 0.144642,0.742709 0.202495,1.128544 l 0.361612,0 c 0.01932,-0.192943 0.08679,-0.569041 0.202504,-1.128544 l 1.518761,-6.81438 2.806091,0" />
    <path
       inkscape:connector-curvature="0"
       style="font-style:normal;font-weight:800;font-size:medium;line-height:80.00000119%;font-family:'Exo 2';-inkscape-font-specification:'Exo 2 Ultra-Bold';letter-spacing:0px;word-spacing:0px;fill:#000000;fill-opacity:1;stroke:none"
       id="path3147"
       d="m 69.517209,31.303226 -2.69037,0 0,-9.982926 2.69037,0 0,9.982926" />
    <path
       style="font-style:normal;font-weight:normal;font-size:medium;line-height:80.00000119%;font-family:'Exo 2';-inkscape-font-specification:'Exo 2';letter-spacing:0px;word-spacing:0px;fill:#000000;fill-opacity:1;stroke:none"
       inkscape:connector-curvature="0"
       id="path3149"
       d="m 70.863431,31.303226 0,-9.982926 c 1.253576,-0.08673 2.439656,-0.130151 3.558237,-0.130151 1.43679,0 2.444479,0.376097 3.023061,1.128393 0.578567,0.742809 0.867851,2.073833 0.867856,3.993221 -5e-6,1.919388 -0.289289,3.25528 -0.867856,4.007576 -0.578582,0.742709 -1.586271,1.114038 -3.023061,1.114038 -1.118581,0 -2.304661,-0.04367 -3.558237,-0.130151 m 1.27287,-8.984684 0,7.971936 c 0.86786,0.01907 1.629643,0.02861 2.285367,0.02861 0.954644,0 1.620005,-0.289364 1.996083,-0.867991 0.376073,-0.588465 0.564106,-1.634893 0.564116,-3.139585 -10e-6,-1.504642 -0.188043,-2.55117 -0.564116,-3.139585 -0.376078,-0.588365 -1.041439,-0.882497 -1.996083,-0.882497 -0.617151,0 -1.378938,0.01004 -2.285367,0.02911" />
    <path
       style="font-style:normal;font-weight:normal;font-size:medium;line-height:80.00000119%;font-family:'Exo 2';-inkscape-font-specification:'Exo 2';letter-spacing:0px;word-spacing:0px;fill:#000000;fill-opacity:1;stroke:none"
       inkscape:connector-curvature="0"
       id="path3151"
       d="m 86.556673,31.303226 -1.359644,0 -0.882326,-3.125129 c -0.125378,-0.376098 -0.294127,-0.641369 -0.506259,-0.795713 -0.212151,-0.163981 -0.486974,-0.245947 -0.824473,-0.245947 -0.337504,0 -0.75214,0 -1.243933,0 -0.482146,-0.01004 -0.800356,-0.01405 -0.95465,-0.01405 l 0,4.181245 -1.258394,0 0,-9.982927 c 0.810003,-0.08673 1.95751,-0.130151 3.442521,-0.130151 1.186066,0 2.020186,0.207348 2.502332,0.622045 0.482141,0.405159 0.723219,1.157455 0.723224,2.257037 -5e-6,0.819906 -0.144657,1.432314 -0.433935,1.837473 -0.279652,0.405059 -0.747337,0.651006 -1.403051,0.73784 l 0,0.07278 c 0.269999,0.06776 0.515896,0.226622 0.7377,0.477437 0.221768,0.241078 0.385699,0.559404 0.491783,0.954826 l 0.969105,3.15404 m -5.771285,-5.266321 2.155191,0 c 0.752145,-0.01004 1.268041,-0.144657 1.547697,-0.405059 0.279627,-0.260503 0.41946,-0.757165 0.41946,-1.490236 0,-0.723385 -0.139833,-1.21051 -0.41946,-1.461325 -0.279656,-0.260403 -0.795552,-0.390554 -1.547697,-0.390554 -1.060718,0 -1.779118,0.0085 -2.155191,0.01405 l 0,3.732718" />
    <path
       style="font-style:normal;font-weight:normal;font-size:medium;line-height:80.00000119%;font-family:'Exo 2';-inkscape-font-specification:'Exo 2';letter-spacing:0px;word-spacing:0px;fill:#000000;fill-opacity:1;stroke:none"
       inkscape:connector-curvature="0"
       id="path3153"
       d="m 88.161264,22.275225 c 0.588224,-0.762033 1.615193,-1.142999 3.080919,-1.142999 1.465717,0 2.487867,0.380966 3.066449,1.142999 0.578572,0.752296 0.86785,2.097825 0.86786,4.036538 -1e-5,1.938712 -0.289288,3.28906 -0.86786,4.050993 -0.578582,0.752396 -1.600732,1.128544 -3.066449,1.128544 -1.465726,0 -2.492695,-0.376148 -3.080919,-1.128544 -0.578567,-0.761933 -0.867855,-2.112281 -0.867855,-4.050993 0,-1.938713 0.289288,-3.284242 0.867855,-4.036538 m 5.120395,0.882548 c -0.376073,-0.588415 -1.0559,-0.882548 -2.039476,-0.882548 -0.983581,0 -1.663412,0.294133 -2.039475,0.882548 -0.376073,0.578677 -0.564116,1.630024 -0.564116,3.15399 0,1.523966 0.188043,2.580081 0.564116,3.168446 0.376063,0.578728 1.055894,0.868091 2.039475,0.868091 0.983576,0 1.663403,-0.289363 2.039476,-0.868091 0.376067,-0.588365 0.564111,-1.64448 0.564116,-3.168446 -5e-6,-1.523966 -0.188049,-2.575313 -0.564116,-3.15399" />
    <path
       style="font-style:normal;font-weight:normal;font-size:medium;line-height:80.00000119%;font-family:'Exo 2';-inkscape-font-specification:'Exo 2';letter-spacing:0px;word-spacing:0px;fill:#000000;fill-opacity:1;stroke:none"
       inkscape:connector-curvature="0"
       id="path3155"
       d="m 104.07013,21.3203 0,9.476577 c -1e-5,0.337549 -0.16394,0.506349 -0.49179,0.506349 l -1.24393,0 c -0.26038,0 -0.44841,-0.13502 -0.56412,-0.405159 l -3.370199,-7.074783 c -0.327862,-0.713747 -0.515896,-1.152637 -0.564112,-1.316568 l -0.231436,0 c 0.03855,0.385785 0.05789,0.824675 0.05789,1.316568 l 0,7.479942 -1.272859,0 0,-9.476577 c 0,-0.33755 0.168749,-0.506349 0.506248,-0.506349 l 1.200547,0 c 0.260362,0 0.448391,0.135019 0.564111,0.405159 l 3.268947,6.901214 c 0.24107,0.472569 0.46768,0.954826 0.67984,1.446719 l 0.24588,0 c -0.029,-0.520804 -0.0434,-1.027204 -0.0434,-1.519097 l 0,-7.233995 1.25841,0" />
    <path
       style="font-style:normal;font-weight:normal;font-size:medium;line-height:80.00000119%;font-family:'Exo 2';-inkscape-font-specification:'Exo 2';letter-spacing:0px;word-spacing:0px;fill:#000000;fill-opacity:1;stroke:none"
       inkscape:connector-curvature="0"
       id="path3157"
       d="m 111.55,30.247061 0.0579,0.983786 c -0.88715,0.05772 -2.31431,0.08684 -4.28147,0.08684 -0.58821,0 -1.05589,-0.154344 -1.40304,-0.463033 -0.3375,-0.318225 -0.51108,-0.742658 -0.52071,-1.27315 l 0,-6.539472 c 0.01,-0.530492 0.18321,-0.950107 0.52071,-1.258795 0.34715,-0.318225 0.81483,-0.477388 1.40304,-0.477388 1.96716,0 3.39432,0.02911 4.28147,0.08683 l -0.0579,0.998243 -4.00665,0 c -0.57857,0 -0.86785,0.318325 -0.86785,0.954925 l 0,2.170204 4.31039,0 0,1.027204 -4.31039,0 0,2.734425 c 0,0.646238 0.28928,0.969382 0.86785,0.969382 l 4.00665,0" />
    <path
       inkscape:connector-curvature="0"
       style="font-style:normal;font-weight:normal;font-size:49.60006332px;line-height:80.00000119%;font-family:'Exo 2';-inkscape-font-specification:'Exo 2';letter-spacing:0px;word-spacing:0px;fill:#000000;fill-opacity:1;stroke:none"
       id="path3159"
       d="m 44.017717,33.092463 0,2.653615 c -9e-6,0.627063 -0.116264,1.071474 -0.348759,1.333031 -0.232504,0.261707 -0.628996,0.39251 -1.189487,0.39251 -0.581262,0 -0.992286,-0.130803 -1.233096,-0.39251 C 41.009722,36.817552 40.8914,36.373141 40.8914,35.746078 l 0,-2.653615 0.548043,0 0,2.653615 c 0,0.460924 0.0747,0.782863 0.224196,0.965566 0.149459,0.178588 0.413107,0.267831 0.790911,0.267831 0.373664,0 0.635237,-0.08924 0.784695,-0.267831 0.153625,-0.182703 0.230421,-0.504642 0.230429,-0.965566 l 0,-2.653615 0.548043,0" />
    <path
       inkscape:connector-curvature="0"
       style="font-style:normal;font-weight:normal;font-size:49.60006332px;line-height:80.00000119%;font-family:'Exo 2';-inkscape-font-specification:'Exo 2';letter-spacing:0px;word-spacing:0px;fill:#000000;fill-opacity:1;stroke:none"
       id="path3161"
       d="m 45.462645,34.356981 0.03739,0.479696 c 0.489911,-0.369673 0.942461,-0.554484 1.357651,-0.554484 0.548026,0 0.822047,0.278221 0.822056,0.834713 l 0,2.273752 -0.529355,0 0,-2.124277 c -8e-6,-0.199267 -0.03321,-0.338352 -0.09964,-0.417356 -0.06642,-0.0786 -0.178537,-0.118256 -0.336303,-0.118256 -0.166072,0 -0.33422,0.03764 -0.504442,0.112082 -0.166072,0.07444 -0.388202,0.197259 -0.666364,0.367514 l 0,2.180293 -0.529363,0 0,-3.033677 0.448401,0" />
    <path
       inkscape:connector-curvature="0"
       style="font-style:normal;font-weight:normal;font-size:49.60006332px;line-height:80.00000119%;font-family:'Exo 2';-inkscape-font-specification:'Exo 2';letter-spacing:0px;word-spacing:0px;fill:#000000;fill-opacity:1;stroke:none"
       id="path3163"
       d="m 49.062751,34.356981 0.03112,0.479696 c 0.427637,-0.369673 0.840736,-0.554484 1.23932,-0.554484 0.42348,0 0.678813,0.178587 0.766004,0.535712 0.411032,-0.357125 0.817898,-0.535712 1.220638,-0.535712 0.261557,0 0.460844,0.07027 0.597862,0.211815 0.141153,0.141194 0.21173,0.348843 0.21173,0.622898 l 0,2.273752 -0.523119,0 0,-2.124277 c -0.004,-0.186769 -0.04357,-0.321789 -0.118326,-0.404858 -0.0706,-0.08719 -0.188917,-0.130754 -0.354981,-0.130754 -0.145324,0 -0.286478,0.03363 -0.423485,0.09963 -0.132856,0.06605 -0.323847,0.191035 -0.57295,0.373739 l 0,2.186516 -0.510671,0 0,-2.124277 c 0,-0.190985 -0.0395,-0.328013 -0.118331,-0.411082 -0.07479,-0.08282 -0.193063,-0.12453 -0.354974,-0.12453 -0.145318,0 -0.286487,0.03363 -0.423489,0.09963 -0.132861,0.06605 -0.323847,0.188977 -0.572955,0.367464 l 0,2.192791 -0.529354,0 0,-3.033677 0.435944,0" />
    <path
       inkscape:connector-curvature="0"
       style="font-style:normal;font-weight:normal;font-size:49.60006332px;line-height:80.00000119%;font-family:'Exo 2';-inkscape-font-specification:'Exo 2';letter-spacing:0px;word-spacing:0px;fill:#000000;fill-opacity:1;stroke:none"
       id="path3165"
       d="m 54.106907,34.811731 -0.04984,-0.392511 c 0.556337,-0.09135 1.044179,-0.137027 1.463509,-0.137027 0.352908,0 0.614465,0.07444 0.784695,0.224263 0.170225,0.145309 0.255343,0.394519 0.255343,0.747578 l 0,2.136624 -0.417266,0 -0.06232,-0.498419 c -0.14532,0.14541 -0.327998,0.274156 -0.548045,0.386237 -0.215891,0.112182 -0.450474,0.168248 -0.703723,0.168248 -0.278181,0 -0.500301,-0.07278 -0.666365,-0.21809 -0.161924,-0.149525 -0.242885,-0.359233 -0.242885,-0.629121 l 0,-0.330171 c 0,-0.236762 0.07269,-0.419465 0.217969,-0.54821 0.14946,-0.132812 0.357049,-0.199318 0.622772,-0.199318 l 1.264226,0 0,-0.26778 c 0,-0.191086 -0.04357,-0.326005 -0.130788,-0.405009 -0.08719,-0.0786 -0.249109,-0.118256 -0.48575,-0.118256 -0.298936,0 -0.732796,0.0266 -1.301605,0.08111 m 0.354986,1.532398 0,0.193093 c 0,0.157758 0.03739,0.274055 0.112107,0.348843 0.0747,0.07027 0.195126,0.105908 0.361195,0.105908 0.157767,0 0.336294,-0.03363 0.535587,-0.112082 0.203433,-0.07865 0.388189,-0.193193 0.554268,-0.342669 l 0,-0.610449 -1.170817,0 c -0.141168,0 -0.242885,0.04166 -0.305154,0.112131 -0.05814,0.07027 -0.08719,0.172314 -0.08719,0.305225" />
    <path
       inkscape:connector-curvature="0"
       style="font-style:normal;font-weight:normal;font-size:49.60006332px;line-height:80.00000119%;font-family:'Exo 2';-inkscape-font-specification:'Exo 2';letter-spacing:0px;word-spacing:0px;fill:#000000;fill-opacity:1;stroke:none"
       id="path3167"
       d="m 57.954562,34.356981 0.03739,0.479696 c 0.489921,-0.369673 0.942463,-0.554484 1.357646,-0.554484 0.54804,0 0.822055,0.278221 0.822055,0.834713 l 0,2.273752 -0.529353,0 0,-2.124277 c 0,-0.199267 -0.03323,-0.338352 -0.09964,-0.417356 -0.06642,-0.0786 -0.178537,-0.118256 -0.336294,-0.118256 -0.166074,0 -0.334227,0.03764 -0.504452,0.112082 -0.166069,0.07444 -0.388184,0.197259 -0.666365,0.367514 l 0,2.180293 -0.529352,0 0,-3.033677 0.448391,0" />
    <path
       inkscape:connector-curvature="0"
       style="font-style:normal;font-weight:normal;font-size:49.60006332px;line-height:80.00000119%;font-family:'Exo 2';-inkscape-font-specification:'Exo 2';letter-spacing:0px;word-spacing:0px;fill:#000000;fill-opacity:1;stroke:none"
       id="path3169"
       d="m 61.567138,34.356981 0.03739,0.479696 c 0.489911,-0.369673 0.942458,-0.554484 1.357646,-0.554484 0.548029,0 0.822049,0.278221 0.822049,0.834713 l 0,2.273752 -0.529353,0 0,-2.124277 c 0,-0.199267 -0.03323,-0.338352 -0.09964,-0.417356 -0.06642,-0.0786 -0.178527,-0.118256 -0.336295,-0.118256 -0.166069,0 -0.334216,0.03764 -0.504441,0.112082 -0.166069,0.07444 -0.3882,0.197259 -0.666365,0.367514 l 0,2.180293 -0.529363,0 0,-3.033677 0.448401,0" />
    <path
       inkscape:connector-curvature="0"
       style="font-style:normal;font-weight:normal;font-size:49.60006332px;line-height:80.00000119%;font-family:'Exo 2';-inkscape-font-specification:'Exo 2';letter-spacing:0px;word-spacing:0px;fill:#000000;fill-opacity:1;stroke:none"
       id="path3171"
       d="m 66.556021,36.132314 -1.413691,0 c 0.02911,0.348843 0.114164,0.583496 0.255332,0.70386 0.141159,0.120463 0.375737,0.180695 0.703734,0.180695 0.344602,0 0.695427,-0.0251 1.052487,-0.07444 l 0.05605,0.355116 c -0.269868,0.112082 -0.662214,0.168148 -1.177035,0.168148 -0.523134,0 -0.896797,-0.120464 -1.120985,-0.361291 -0.220052,-0.245043 -0.330076,-0.658234 -0.330076,-1.239622 0,-0.585604 0.107946,-0.994578 0.323847,-1.227123 0.215886,-0.236761 0.572945,-0.355117 1.071163,-0.355117 0.452552,0 0.782622,0.08282 0.990211,0.249209 0.207584,0.161924 0.311374,0.409075 0.311384,0.741254 0.0084,0.573106 -0.232505,0.859659 -0.722416,0.859659 m -1.419925,-0.411183 1.282913,0 c 0.220042,0 0.330065,-0.149476 0.33007,-0.448476 -0.004,-0.195152 -0.06232,-0.334287 -0.174376,-0.417357 -0.112101,-0.08282 -0.303086,-0.124579 -0.57295,-0.124579 -0.319686,0 -0.541816,0.07027 -0.666365,0.211765 -0.124555,0.137077 -0.190985,0.396576 -0.199292,0.778647" />
    <path
       inkscape:connector-curvature="0"
       style="font-style:normal;font-weight:normal;font-size:49.60006332px;line-height:80.00000119%;font-family:'Exo 2';-inkscape-font-specification:'Exo 2';letter-spacing:0px;word-spacing:0px;fill:#000000;fill-opacity:1;stroke:none"
       id="path3173"
       d="m 70.667,33.030123 0,4.360535 -0.411032,0 -0.04984,-0.436079 c -0.386121,0.340561 -0.786768,0.510766 -1.201951,0.510766 -0.373664,0 -0.64561,-0.130803 -0.815831,-0.39241 -0.166074,-0.265773 -0.249103,-0.668574 -0.249103,-1.208502 0,-0.577222 0.09134,-0.984188 0.274024,-1.22095 0.182668,-0.240827 0.473302,-0.36129 0.871871,-0.36129 0.394419,0 0.753551,0.09346 1.077397,0.280329 -0.01666,-0.182703 -0.02495,-0.382071 -0.02495,-0.597952 l 0,-0.934447 0.529363,0 m -0.529363,3.556942 0,-1.6757 c -0.398574,-0.112082 -0.707879,-0.168148 -0.927926,-0.168148 -0.269864,0 -0.458776,0.07695 -0.566727,0.230488 -0.107945,0.153641 -0.161913,0.448476 -0.161913,0.884554 0,0.436029 0.05187,0.737088 0.155689,0.903227 0.107951,0.161974 0.288546,0.242935 0.541811,0.242935 0.157767,0 0.301003,-0.02911 0.429714,-0.08724 0.128705,-0.06194 0.305159,-0.172363 0.529352,-0.33012" />
    <path
       inkscape:connector-curvature="0"
       style="font-style:normal;font-weight:normal;font-size:49.60006332px;line-height:80.00000119%;font-family:'Exo 2';-inkscape-font-specification:'Exo 2';letter-spacing:0px;word-spacing:0px;fill:#000000;fill-opacity:1;stroke:none"
       id="path3175"
       d="m 75.561164,33.553387 -1.612984,0 c -0.145309,0 -0.251182,0.03363 -0.317612,0.09963 -0.06643,0.06189 -0.09964,0.166139 -0.09964,0.311549 l 0,0.996636 1.793589,0 0,0.442303 -1.793589,0 0,1.987149 -0.548044,0 0,-3.531996 c 0,-0.245043 0.07479,-0.43402 0.224198,-0.566882 0.149465,-0.137077 0.350835,-0.205591 0.60409,-0.205591 0.817908,0 1.411618,0.01405 1.781131,0.04367 l -0.03112,0.423581" />
    <path
       inkscape:connector-curvature="0"
       style="font-style:normal;font-weight:normal;font-size:49.60006332px;line-height:80.00000119%;font-family:'Exo 2';-inkscape-font-specification:'Exo 2';letter-spacing:0px;word-spacing:0px;fill:#000000;fill-opacity:1;stroke:none"
       id="path3177"
       d="m 76.832006,33.030123 0,3.525721 c -0.004,0.132962 0.02901,0.234654 0.09964,0.305276 0.0706,0.0661 0.174376,0.09973 0.311389,0.09973 l 0.292701,0 0.06232,0.404859 c -0.112101,0.05441 -0.296852,0.08116 -0.554258,0.08116 -0.228354,0 -0.408959,-0.0661 -0.541811,-0.199367 -0.132861,-0.137028 -0.199292,-0.328063 -0.199292,-0.573106 l 0,-3.644127 0.529353,0" />
    <path
       inkscape:connector-curvature="0"
       style="font-style:normal;font-weight:normal;font-size:49.60006332px;line-height:80.00000119%;font-family:'Exo 2';-inkscape-font-specification:'Exo 2';letter-spacing:0px;word-spacing:0px;fill:#000000;fill-opacity:1;stroke:none"
       id="path3179"
       d="m 80.689685,34.356981 -1.214405,3.201824 c -0.265718,0.71435 -0.707885,1.08593 -1.326501,1.115042 l -0.04984,-0.348843 c 0.236651,-0.07444 0.421412,-0.178587 0.554269,-0.311448 0.137007,-0.128746 0.247026,-0.292777 0.33007,-0.492145 l 0.04984,-0.130753 -0.11832,0 c -0.09964,0 -0.161924,-0.04618 -0.186829,-0.137128 l -1.102318,-2.896549 0.566721,0 0.803387,2.261203 c 0.05814,0.170256 0.09549,0.292777 0.112097,0.367515 l 0.08719,0 c 0.03323,-0.08282 0.0768,-0.205541 0.130789,-0.367515 l 0.790909,-2.261203 0.572956,0" />
    <path
       inkscape:connector-curvature="0"
       style="font-style:normal;font-weight:normal;font-size:49.60006332px;line-height:80.00000119%;font-family:'Exo 2';-inkscape-font-specification:'Exo 2';letter-spacing:0px;word-spacing:0px;fill:#000000;fill-opacity:1;stroke:none"
       id="path3181"
       d="m 81.45754,33.067517 0.249119,0 c 0.107941,0 0.161913,0.05436 0.161913,0.161974 l 0,0.355016 c 0,0.108016 -0.05396,0.161974 -0.161913,0.161974 l -0.249119,0 c -0.10794,0 -0.161913,-0.05356 -0.161913,-0.161974 l 0,-0.355016 c 0,-0.108016 0.05396,-0.161974 0.161913,-0.161974 m 0.386122,4.323141 -0.523124,0 0,-3.033677 0.523124,0 0,3.033677" />
    <path
       inkscape:connector-curvature="0"
       style="font-style:normal;font-weight:normal;font-size:49.60006332px;line-height:80.00000119%;font-family:'Exo 2';-inkscape-font-specification:'Exo 2';letter-spacing:0px;word-spacing:0px;fill:#000000;fill-opacity:1;stroke:none"
       id="path3183"
       d="m 83.288779,34.356981 0.03739,0.479696 c 0.489911,-0.369673 0.942458,-0.554484 1.357651,-0.554484 0.548024,0 0.822044,0.278221 0.822054,0.834713 l 0,2.273752 -0.529352,0 0,-2.124277 c -1e-5,-0.199267 -0.03323,-0.338352 -0.09965,-0.417356 -0.06642,-0.0786 -0.178527,-0.118256 -0.336294,-0.118256 -0.16607,0 -0.334217,0.03764 -0.504442,0.112082 -0.166069,0.07444 -0.388199,0.197259 -0.666365,0.367514 l 0,2.180293 -0.529358,0 0,-3.033677 0.448391,0" />
    <path
       inkscape:connector-curvature="0"
       style="font-style:normal;font-weight:normal;font-size:49.60006332px;line-height:80.00000119%;font-family:'Exo 2';-inkscape-font-specification:'Exo 2';letter-spacing:0px;word-spacing:0px;fill:#000000;fill-opacity:1;stroke:none"
       id="path3185"
       d="m 89.274108,34.649758 -0.448396,0.03764 c 0.08307,0.137128 0.124549,0.323947 0.124554,0.560659 -5e-6,0.34056 -0.09758,0.587611 -0.292701,0.741303 -0.195141,0.149475 -0.531441,0.224263 -1.008889,0.224263 -0.232505,0 -0.442167,-0.02108 -0.629006,-0.06189 -0.07888,0.09552 -0.101716,0.201425 -0.06851,0.317723 0.03323,0.112081 0.126638,0.180595 0.280254,0.205541 l 1.133438,0.180696 c 0.282327,0.04166 0.479536,0.130753 0.591637,0.267831 0.116248,0.132861 0.174376,0.328012 0.174376,0.585503 0,0.353059 -0.105872,0.598052 -0.317612,0.73508 -0.207599,0.137027 -0.583335,0.205541 -1.127214,0.205541 -0.548039,0 -0.93001,-0.06856 -1.145901,-0.205541 -0.21175,-0.132912 -0.317612,-0.371681 -0.317612,-0.716307 0,-0.178638 0.03739,-0.32194 0.112096,-0.429855 0.07479,-0.107966 0.201365,-0.209707 0.379887,-0.305225 -0.153616,-0.120464 -0.224198,-0.280329 -0.21174,-0.479696 0.01245,-0.199368 0.09134,-0.355017 0.236651,-0.467199 C 86.482,35.908804 86.3533,35.645089 86.3533,35.254786 c 0,-0.348842 0.09549,-0.598052 0.286478,-0.747577 0.195131,-0.149475 0.533508,-0.224263 1.015112,-0.224263 0.286478,0 0.521056,0.0251 0.703734,0.07444 l 0.946609,0 -0.03112,0.292827 M 87.01968,35.68424 c 0.120404,0.08282 0.330071,0.124579 0.629006,0.124579 0.298926,0 0.508598,-0.04166 0.628996,-0.124579 0.120394,-0.08724 0.180601,-0.232546 0.180611,-0.436079 -1e-5,-0.203433 -0.06023,-0.346735 -0.180611,-0.429804 -0.116257,-0.08719 -0.325914,-0.130854 -0.628996,-0.130854 -0.298935,0 -0.508602,0.04367 -0.629006,0.130854 -0.120398,0.08282 -0.180605,0.226371 -0.180595,0.429804 -1e-5,0.203533 0.06023,0.348843 0.180595,0.436079 m 1.071173,1.563518 -1.033804,-0.143302 c -0.21175,0.161974 -0.317613,0.355117 -0.317613,0.57933 0,0.211815 0.06232,0.350951 0.186825,0.417357 0.124554,0.06691 0.375746,0.09973 0.75356,0.09973 0.369512,0 0.616538,-0.03514 0.741103,-0.105908 0.128705,-0.06611 0.193048,-0.203534 0.193048,-0.411183 0,-0.149475 -0.03323,-0.251217 -0.09964,-0.305175 -0.06232,-0.05436 -0.203443,-0.09763 -0.42348,-0.130853" />
    <path
       inkscape:connector-curvature="0"
       style="font-style:normal;font-weight:normal;font-size:49.60006332px;line-height:80.00000119%;font-family:'Exo 2';-inkscape-font-specification:'Exo 2';letter-spacing:0px;word-spacing:0px;fill:#000000;fill-opacity:1;stroke:none"
       id="path3187"
       d="m 91.498375,33.503546 c 0.253259,-0.328013 0.695426,-0.492095 1.326506,-0.492095 0.631074,0 1.071158,0.164082 1.320272,0.492095 0.249103,0.323896 0.373663,0.903276 0.373663,1.737989 0,0.834713 -0.12456,1.416151 -0.373663,1.744164 -0.249114,0.323897 -0.689198,0.48592 -1.320272,0.48592 -0.63108,0 -1.073247,-0.162023 -1.326506,-0.48592 -0.249109,-0.328013 -0.373669,-0.909451 -0.373669,-1.744164 0,-0.834713 0.12456,-1.414093 0.373669,-1.737989 m 2.204611,0.380012 c -0.161924,-0.253375 -0.454625,-0.380012 -0.878105,-0.380012 -0.423486,0 -0.716187,0.126637 -0.878111,0.380012 -0.161918,0.249159 -0.242884,0.701802 -0.242879,1.357977 -5e-6,0.656126 0.08098,1.110876 0.242879,1.364202 0.161924,0.249209 0.454625,0.373738 0.878111,0.373738 0.42348,0 0.716181,-0.124529 0.878105,-0.373738 0.161913,-0.253326 0.242884,-0.708076 0.242884,-1.364202 0,-0.656175 -0.08098,-1.108818 -0.242884,-1.357977" />
    <path
       inkscape:connector-curvature="0"
       style="font-style:normal;font-weight:normal;font-size:49.60006332px;line-height:80.00000119%;font-family:'Exo 2';-inkscape-font-specification:'Exo 2';letter-spacing:0px;word-spacing:0px;fill:#000000;fill-opacity:1;stroke:none"
       id="path3189"
       d="m 95.907406,33.030123 0,1.133714 c 0,0.290669 -0.01867,0.514982 -0.05605,0.67284 0.361205,-0.369673 0.751478,-0.554484 1.170807,-0.554484 0.377814,0 0.653917,0.124629 0.828298,0.373789 0.178512,0.244993 0.267786,0.647793 0.267786,1.208451 0,0.54821 -0.09965,0.953119 -0.298931,1.214676 -0.199287,0.257491 -0.548044,0.386236 -1.046252,0.386236 -0.518983,0 -0.983988,-0.07278 -1.395015,-0.217989 l 0,-4.217233 0.529358,0 m 0,2.161571 0,1.719267 c 0.278171,0.07865 0.56257,0.11419 0.853189,0.105908 0.29478,-0.0085 0.502379,-0.08934 0.622782,-0.255383 0.120399,-0.170305 0.182668,-0.469306 0.186829,-0.897053 -0.004,-0.427696 -0.05605,-0.720523 -0.155694,-0.878281 -0.09964,-0.161973 -0.292707,-0.242935 -0.579179,-0.242935 -0.145315,0 -0.286478,0.03514 -0.42348,0.105808 -0.132867,0.07027 -0.301014,0.184911 -0.504447,0.342669" />
    <path
       inkscape:connector-curvature="0"
       style="font-style:normal;font-weight:normal;font-size:49.60006332px;line-height:80.00000119%;font-family:'Exo 2';-inkscape-font-specification:'Exo 2';letter-spacing:0px;word-spacing:0px;fill:#000000;fill-opacity:1;stroke:none"
       id="path3191"
       d="m 99.116624,33.067517 0.249114,0 c 0.103794,0 0.155684,0.05436 0.155684,0.161974 l 0,0.355016 c 0,0.108016 -0.05187,0.161974 -0.155684,0.161974 l -0.249114,0 c -0.107951,0 -0.161919,-0.05356 -0.161919,-0.161974 l 0,-0.355016 c 0,-0.108016 0.05396,-0.161974 0.161919,-0.161974 m 0.386126,1.289464 0,3.108364 c -1e-5,0.240878 -0.05195,0.465141 -0.155699,0.67279 -0.1038,0.207599 -0.247036,0.379963 -0.429714,0.51704 L 98.62464,38.424638 c 0.2325,-0.286503 0.348747,-0.606234 0.348747,-0.959293 l 0,-3.108364 0.529363,0" />
    <path
       inkscape:connector-curvature="0"
       style="font-style:normal;font-weight:normal;font-size:49.60006332px;line-height:80.00000119%;font-family:'Exo 2';-inkscape-font-specification:'Exo 2';letter-spacing:0px;word-spacing:0px;fill:#000000;fill-opacity:1;stroke:none"
       id="path3193"
       d="m 102.3239,36.132314 -1.41369,0 c 0.0291,0.348843 0.11418,0.583496 0.25533,0.70386 0.14116,0.120463 0.37574,0.180695 0.70373,0.180695 0.34461,0 0.69544,-0.0251 1.05249,-0.07444 l 0.056,0.355116 c -0.26987,0.112082 -0.66222,0.168148 -1.17704,0.168148 -0.52314,0 -0.8968,-0.120464 -1.12099,-0.361291 -0.22006,-0.245043 -0.33007,-0.658234 -0.33007,-1.239622 0,-0.585604 0.10794,-0.994578 0.32384,-1.227123 0.2159,-0.236761 0.57295,-0.355117 1.07116,-0.355117 0.45255,0 0.78262,0.08282 0.99022,0.249209 0.20759,0.161924 0.31137,0.409075 0.31138,0.741254 0.008,0.573106 -0.23251,0.859659 -0.72242,0.859659 m -1.41992,-0.411183 1.28291,0 c 0.22005,0 0.33007,-0.149476 0.33007,-0.448476 -0.004,-0.195152 -0.0623,-0.334287 -0.17438,-0.417357 -0.1121,-0.08282 -0.30308,-0.124579 -0.57294,-0.124579 -0.31969,0 -0.54181,0.07027 -0.66637,0.211765 -0.12455,0.137077 -0.19098,0.396576 -0.19929,0.778647" />
    <path
       inkscape:connector-curvature="0"
       style="font-style:normal;font-weight:normal;font-size:49.60006332px;line-height:80.00000119%;font-family:'Exo 2';-inkscape-font-specification:'Exo 2';letter-spacing:0px;word-spacing:0px;fill:#000000;fill-opacity:1;stroke:none"
       id="path3195"
       d="m 106.11726,36.954579 0.056,0.355017 c -0.29893,0.1039 -0.64561,0.155749 -1.04003,0.155749 -0.52314,0 -0.89472,-0.118355 -1.11476,-0.355016 -0.2159,-0.240928 -0.32385,-0.654118 -0.32385,-1.239672 0,-0.585504 0.10795,-0.996686 0.32385,-1.233347 0.22004,-0.236762 0.5937,-0.355117 1.12098,-0.355117 0.39858,0 0.72449,0.04768 0.97775,0.143301 l -0.0685,0.342569 c -0.27402,-0.0251 -0.54804,-0.03764 -0.82206,-0.03764 -0.36535,0 -0.61862,0.08116 -0.75978,0.242935 -0.14116,0.161974 -0.21174,0.460924 -0.21174,0.896953 0,0.440294 0.0706,0.741353 0.21174,0.903327 0.14116,0.161923 0.39443,0.242935 0.75978,0.242935 0.33215,0 0.629,-0.02108 0.89056,-0.06274" />
    <path
       inkscape:connector-curvature="0"
       style="font-style:normal;font-weight:normal;font-size:49.60006332px;line-height:80.00000119%;font-family:'Exo 2';-inkscape-font-specification:'Exo 2';letter-spacing:0px;word-spacing:0px;fill:#000000;fill-opacity:1;stroke:none"
       id="path3197"
       d="m 107.6448,34.774337 0,1.781507 c 0,0.14541 0.0311,0.24921 0.0934,0.31155 0.0623,0.06189 0.16814,0.09346 0.31761,0.09346 l 0.46085,0 0.0623,0.404859 c -0.19097,0.05441 -0.41932,0.08116 -0.68504,0.08116 -0.25326,0 -0.44631,-0.07027 -0.57917,-0.211815 -0.13286,-0.141194 -0.1993,-0.344677 -0.1993,-0.61045 l 0,-1.850121 -0.54803,0 0,-0.386237 0.54803,-0.0251 0,-0.903226 0.52936,0 0,0.897053 0.96529,0 0,0.417356 -0.96529,0" />
    <path
       inkscape:connector-curvature="0"
       style="font-style:normal;font-weight:normal;font-size:49.60006332px;line-height:80.00000119%;font-family:'Exo 2';-inkscape-font-specification:'Exo 2';letter-spacing:0px;word-spacing:0px;fill:#000000;fill-opacity:1;stroke:none"
       id="path3199"
       d="m 110.63946,36.163434 -0.87188,-0.199367 c -0.24911,-0.05853 -0.42555,-0.151584 -0.52935,-0.280229 -0.1038,-0.128746 -0.1557,-0.317723 -0.1557,-0.566932 0,-0.336395 0.0872,-0.560558 0.26157,-0.67274 0.17852,-0.116297 0.48576,-0.170255 0.92169,-0.161973 0.48577,0.0085 0.91133,0.03915 1.27668,0.09346 l -0.0436,0.386237 c -0.63108,-0.02108 -1.01512,-0.03112 -1.15213,-0.03112 -0.30724,-0.0085 -0.50861,0.01405 -0.60409,0.05607 -0.0955,0.04166 -0.14324,0.151584 -0.14324,0.330071 0,0.145409 0.0311,0.245043 0.0934,0.299101 0.0664,0.05351 0.18268,0.09963 0.34876,0.137027 l 0.88434,0.199318 c 0.2491,0.06194 0.42764,0.155699 0.53558,0.280279 0.11209,0.120463 0.16814,0.305224 0.16814,0.554434 0,0.352958 -0.0976,0.587612 -0.29271,0.703909 -0.19512,0.112082 -0.52935,0.168198 -1.00266,0.168198 -0.42348,0 -0.81999,-0.02911 -1.18949,-0.08724 l 0.0374,-0.386237 c 0.35292,0.02108 0.70167,0.02911 1.04626,0.0251 0.35291,0 0.58956,-0.0266 0.70996,-0.08116 0.12041,-0.05436 0.1806,-0.168147 0.1806,-0.342568 0,-0.137028 -0.0374,-0.230437 -0.11209,-0.280329 -0.0706,-0.05436 -0.19307,-0.101692 -0.36744,-0.143302" />
  </g>
</svg>
