<?xml version="1.0" encoding="UTF-8" standalone="no"?>
<svg
   xmlns:lc="http://www.librecad.org"
   xmlns:dc="http://purl.org/dc/elements/1.1/"
   xmlns:cc="http://creativecommons.org/ns#"
   xmlns:rdf="http://www.w3.org/1999/02/22-rdf-syntax-ns#"
   xmlns:svg="http://www.w3.org/2000/svg"
   xmlns="http://www.w3.org/2000/svg"
   xmlns:sodipodi="http://sodipodi.sourceforge.net/DTD/sodipodi-0.dtd"
   xmlns:inkscape="http://www.inkscape.org/namespaces/inkscape"
   width="561"
   height="63.999996"
   viewBox="0 0 148.43126 16.933332"
   version="1.1"
   id="svg14"
   sodipodi:docname="levidrone-com.svg"
   inkscape:version="0.92.4 (5da689c313, 2019-01-14)">
  <metadata
     id="metadata20">
    <rdf:RDF>
      <cc:Work
         rdf:about="">
        <dc:format>image/svg+xml</dc:format>
        <dc:type
           rdf:resource="http://purl.org/dc/dcmitype/StillImage" />
        <dc:title></dc:title>
      </cc:Work>
    </rdf:RDF>
  </metadata>
  <defs
     id="defs18" />
  <sodipodi:namedview
     pagecolor="#ffffff"
     bordercolor="#666666"
     borderopacity="1"
     objecttolerance="10"
     gridtolerance="10"
     guidetolerance="10"
     inkscape:pageopacity="0"
     inkscape:pageshadow="2"
     inkscape:window-width="1862"
     inkscape:window-height="1016"
     id="namedview16"
     showgrid="false"
     inkscape:zoom="0.70644681"
     inkscape:cx="311.91331"
     inkscape:cy="-150.81455"
     inkscape:window-x="58"
     inkscape:window-y="27"
     inkscape:window-maximized="1"
     inkscape:current-layer="g10"
     units="px"
     fit-margin-top="0"
     fit-margin-left="0"
     fit-margin-right="0"
     fit-margin-bottom="0" />
  <g
     lc:layername="0"
     lc:is_locked="false"
     lc:is_construction="false"
     id="g2"
     style="fill:none;stroke:#000000;stroke-width:1"
     transform="translate(-66.471422,-22.283333)" />
  <g
     lc:layername="D"
     lc:is_locked="false"
     lc:is_construction="false"
     id="g10"
     style="fill:none;stroke:#000000;stroke-width:1"
     transform="translate(-66.471422,-22.283333)">
    <g
       aria-label="levidrone.com"
       transform="matrix(1.0004534,0,0,0.99973908,-0.01278731,0)"
       style="font-style:normal;font-weight:normal;font-size:10.60022926px;line-height:1.25;font-family:sans-serif;letter-spacing:0px;word-spacing:0px;fill:#000000;fill-opacity:1;stroke:none;stroke-width:0.26500574"
       id="text822">
      <path
         d="M 69.552173,22.492674 V 39.000763 H 66.454079 V 23.171088 Z"
         style="font-style:normal;font-variant:normal;font-weight:bold;font-stretch:normal;font-size:22.61382103px;font-family:'Red Hat Display';-inkscape-font-specification:'Red Hat Display Bold';fill:#3c3c3c;fill-opacity:1;stroke-width:0.26500574"
         id="path820"
         inkscape:connector-curvature="0" />
      <path
         d="m 82.535686,37.530865 q -1.085463,0.881939 -2.238768,1.288987 -1.130691,0.407049 -2.532748,0.407049 -1.334216,0 -2.510134,-0.47489 -1.153305,-0.47489 -2.01263,-1.288988 -0.836712,-0.814097 -1.334216,-1.922175 -0.47489,-1.130691 -0.47489,-2.419679 0,-1.266374 0.452276,-2.374451 0.474891,-1.130691 1.288988,-1.944788 0.814098,-0.836712 1.922175,-1.311602 1.130691,-0.47489 2.397065,-0.47489 1.24376,0 2.30661,0.497504 1.085463,0.47489 1.854333,1.311601 0.791484,0.836712 1.221146,2.012631 0.452277,1.153304 0.452277,2.510134 v 0.814097 h -8.774163 q 0.316594,1.108077 1.221147,1.786492 0.904552,0.678415 2.125699,0.678415 0.76887,0 1.447284,-0.248752 0.678415,-0.248752 1.153305,-0.701029 z M 77.424962,29.5708 q -1.062849,0 -1.831719,0.6558 -0.76887,0.633187 -1.06285,1.718651 h 5.766525 Q 80.002938,30.905015 79.211454,30.249214 78.442584,29.5708 77.424962,29.5708 Z"
         style="font-style:normal;font-variant:normal;font-weight:bold;font-stretch:normal;font-size:22.61382103px;font-family:'Red Hat Display';-inkscape-font-specification:'Red Hat Display Bold';fill:#3c3c3c;fill-opacity:1;stroke-width:0.26500574"
         id="path822"
         inkscape:connector-curvature="0" />
      <path
         d="M 88.627992,39.000763 83.562496,27.218962 h 3.36946 l 3.233776,7.846996 3.211163,-7.846996 h 3.301617 l -5.065496,11.781801 z"
         style="font-style:normal;font-variant:normal;font-weight:bold;font-stretch:normal;font-size:22.61382103px;font-family:'Red Hat Display';-inkscape-font-specification:'Red Hat Display Bold';fill:#3c3c3c;fill-opacity:1;stroke-width:0.26500574"
         id="path824"
         inkscape:connector-curvature="0" />
      <path
         d="m 99.439165,25.816905 q -0.723642,0 -1.24376,-0.520118 -0.520118,-0.520117 -0.520118,-1.24376 0,-0.723642 0.520118,-1.24376 0.520118,-0.520118 1.24376,-0.520118 0.723645,0 1.243765,0.520118 0.52011,0.520118 0.52011,1.24376 0,0.723643 -0.52011,1.24376 -0.52012,0.520118 -1.243765,0.520118 z m 1.560355,1.402057 V 39.000763 H 97.901425 V 27.218962 Z"
         style="font-style:normal;font-variant:normal;font-weight:bold;font-stretch:normal;font-size:22.61382103px;font-family:'Red Hat Display';-inkscape-font-specification:'Red Hat Display Bold';fill:#3c3c3c;fill-opacity:1;stroke-width:0.26500574"
         id="path826"
         inkscape:connector-curvature="0" />
      <path
         d="m 112.21915,39.000763 v -0.972394 q -0.70103,0.565345 -1.56035,0.859325 -0.85933,0.271366 -1.78649,0.271366 -1.24376,0 -2.35184,-0.474891 -1.08546,-0.47489 -1.89956,-1.288987 -0.8141,-0.814098 -1.28899,-1.922175 -0.45228,-1.108077 -0.45228,-2.374451 0,-1.266374 0.47489,-2.374452 0.47489,-1.108077 1.28899,-1.922174 0.8141,-0.814098 1.92218,-1.266374 1.13069,-0.474891 2.39706,-0.474891 0.85933,0 1.67342,0.248752 0.83672,0.226139 1.53774,0.678415 v -4.816744 l 3.0981,-0.678414 v 16.508089 z m -6.28664,-5.902207 q 0,1.42467 0.99501,2.419679 0.99501,0.995008 2.44229,0.995008 0.85933,0 1.56035,-0.29398 0.72365,-0.29398 1.24376,-0.836711 v -4.590606 q -0.4975,-0.520118 -1.24376,-0.814098 -0.72364,-0.293979 -1.56035,-0.293979 -1.4699,0 -2.46491,0.995008 -0.97239,0.972394 -0.97239,2.419679 z"
         style="font-style:normal;font-variant:normal;font-weight:bold;font-stretch:normal;font-size:22.61382103px;font-family:'Red Hat Display';-inkscape-font-specification:'Red Hat Display Bold';fill:#3c3c3c;fill-opacity:1;stroke-width:0.26500574"
         id="path828"
         inkscape:connector-curvature="0" />
      <path
         d="M 117.73269,39.000763 V 27.218962 h 3.09809 v 1.288988 q 0.56534,-0.76887 1.35683,-1.153305 0.8141,-0.407049 1.78649,-0.407049 0.45228,0.02261 0.74626,0.09046 0.31659,0.04523 0.54273,0.18091 v 2.713659 q -0.33921,-0.158297 -0.74626,-0.226139 -0.40705,-0.09046 -0.83671,-0.09046 -0.90455,0 -1.67342,0.452277 -0.74626,0.452276 -1.17592,1.311601 v 7.620858 z"
         style="font-style:normal;font-variant:normal;font-weight:bold;font-stretch:normal;font-size:22.61382103px;font-family:'Red Hat Display';-inkscape-font-specification:'Red Hat Display Bold';fill:#3c3c3c;fill-opacity:1;stroke-width:0.26500574"
         id="path830"
         inkscape:connector-curvature="0" />
      <path
         d="m 125.80264,33.121169 q 0,-1.288987 0.47489,-2.397065 0.4975,-1.130691 1.33422,-1.944788 0.85932,-0.836712 2.01263,-1.311602 1.1533,-0.47489 2.4649,-0.47489 1.3116,0 2.46491,0.47489 1.1533,0.47489 1.99002,1.311602 0.85932,0.814097 1.33421,1.944788 0.4975,1.108078 0.4975,2.397065 0,1.288988 -0.4975,2.419679 -0.47489,1.108078 -1.33421,1.922175 -0.83672,0.814098 -1.99002,1.288988 -1.15331,0.47489 -2.46491,0.47489 -1.3116,0 -2.4649,-0.47489 -1.15331,-0.47489 -2.01263,-1.288988 -0.83672,-0.814097 -1.33422,-1.922175 -0.47489,-1.130691 -0.47489,-2.419679 z m 6.28664,3.414687 q 1.35683,0 2.30661,-0.995008 0.94978,-0.995008 0.94978,-2.419679 0,-1.447284 -0.94978,-2.442292 -0.94978,-0.995008 -2.30661,-0.995008 -1.35683,0 -2.30661,0.995008 -0.94978,0.995008 -0.94978,2.442292 0,1.424671 0.94978,2.419679 0.94978,0.995008 2.30661,0.995008 z"
         style="font-style:normal;font-variant:normal;font-weight:bold;font-stretch:normal;font-size:22.61382103px;font-family:'Red Hat Display';-inkscape-font-specification:'Red Hat Display Bold';fill:#3c3c3c;fill-opacity:1;stroke-width:0.26500574"
         id="path832"
         inkscape:connector-curvature="0" />
      <path
         d="M 140.25817,39.000763 V 27.218962 h 3.0981 v 0.927167 q 0.67841,-0.565346 1.49251,-0.859325 0.83671,-0.29398 1.8091,-0.29398 2.03525,0 3.34685,1.311602 1.3116,1.311601 1.3116,3.369459 v 7.326878 h -3.09809 v -6.874602 q 0,-1.108077 -0.67842,-1.786492 -0.6558,-0.678414 -1.76388,-0.678414 -0.76887,0 -1.40205,0.316593 -0.61058,0.29398 -1.01762,0.859326 v 8.163589 z"
         style="font-style:normal;font-variant:normal;font-weight:bold;font-stretch:normal;font-size:22.61382103px;font-family:'Red Hat Display';-inkscape-font-specification:'Red Hat Display Bold';fill:#3c3c3c;fill-opacity:1;stroke-width:0.26500574"
         id="path834"
         inkscape:connector-curvature="0" />
      <path
         d="m 164.24578,37.530865 q -1.08546,0.881939 -2.23877,1.288987 -1.13069,0.407049 -2.53274,0.407049 -1.33422,0 -2.51014,-0.47489 -1.1533,-0.47489 -2.01263,-1.288988 -0.83671,-0.814097 -1.33421,-1.922175 -0.47489,-1.130691 -0.47489,-2.419679 0,-1.266374 0.45227,-2.374451 0.47489,-1.130691 1.28899,-1.944788 0.8141,-0.836712 1.92218,-1.311602 1.13069,-0.47489 2.39706,-0.47489 1.24376,0 2.30661,0.497504 1.08546,0.47489 1.85433,1.311601 0.79149,0.836712 1.22115,2.012631 0.45228,1.153304 0.45228,2.510134 v 0.814097 h -8.77417 q 0.3166,1.108077 1.22115,1.786492 0.90455,0.678415 2.1257,0.678415 0.76887,0 1.44728,-0.248752 0.67842,-0.248752 1.15331,-0.701029 z M 159.13506,29.5708 q -1.06285,0 -1.83172,0.6558 -0.76887,0.633187 -1.06285,1.718651 h 5.76652 q -0.29398,-1.040236 -1.08546,-1.696037 -0.76887,-0.678414 -1.78649,-0.678414 z"
         style="font-style:normal;font-variant:normal;font-weight:bold;font-stretch:normal;font-size:22.61382103px;font-family:'Red Hat Display';-inkscape-font-specification:'Red Hat Display Bold';fill:#3c3c3c;fill-opacity:1;stroke-width:0.26500574"
         id="path836"
         inkscape:connector-curvature="0" />
      <path
         d="m 167.76541,35.540848 q 0.76887,0 1.3116,0.542732 0.54273,0.542732 0.54273,1.311602 0,0.746256 -0.54273,1.288987 -0.54273,0.542732 -1.3116,0.542732 -0.74626,0 -1.28899,-0.542732 -0.54273,-0.542731 -0.54273,-1.288987 0,-0.76887 0.54273,-1.311602 0.54273,-0.542732 1.28899,-0.542732 z"
         style="font-style:normal;font-variant:normal;font-weight:bold;font-stretch:normal;font-size:22.61382103px;font-family:'Red Hat Display';-inkscape-font-specification:'Red Hat Display Bold';fill:#3c3c3c;fill-opacity:1;stroke-width:0.26500574"
         id="path838"
         inkscape:connector-curvature="0" />
      <path
         d="m 176.9862,36.513243 q 0.79148,0 1.4699,-0.316594 0.70103,-0.316593 1.33421,-0.995008 l 1.85434,1.922175 q -0.90456,0.995008 -2.17093,1.560353 -1.26638,0.542732 -2.6232,0.542732 -1.28899,0 -2.4423,-0.47489 -1.13069,-0.47489 -1.9674,-1.288988 -0.8141,-0.814097 -1.28899,-1.922175 -0.47489,-1.130691 -0.47489,-2.419679 0,-1.288987 0.47489,-2.397065 0.47489,-1.130691 1.28899,-1.944788 0.83671,-0.836712 1.9674,-1.311602 1.15331,-0.47489 2.4423,-0.47489 1.40205,0 2.69104,0.565345 1.28899,0.542732 2.19354,1.53774 l -1.89956,2.01263 q -0.63319,-0.701028 -1.35683,-1.062849 -0.72364,-0.361821 -1.56035,-0.361821 -1.33422,0 -2.26139,0.995008 -0.90455,0.995008 -0.90455,2.442292 0,1.447285 0.92717,2.419679 0.94978,0.972395 2.30661,0.972395 z"
         style="font-style:normal;font-variant:normal;font-weight:bold;font-stretch:normal;font-size:22.61382103px;font-family:'Red Hat Display';-inkscape-font-specification:'Red Hat Display Bold';fill:#3c3c3c;fill-opacity:1;stroke-width:0.26500574"
         id="path840"
         inkscape:connector-curvature="0" />
      <path
         d="m 182.24886,33.121169 q 0,-1.288987 0.47489,-2.397065 0.4975,-1.130691 1.33421,-1.944788 0.85933,-0.836712 2.01263,-1.311602 1.15331,-0.47489 2.46491,-0.47489 1.3116,0 2.46491,0.47489 1.1533,0.47489 1.99001,1.311602 0.85933,0.814097 1.33422,1.944788 0.4975,1.108078 0.4975,2.397065 0,1.288988 -0.4975,2.419679 -0.47489,1.108078 -1.33422,1.922175 -0.83671,0.814098 -1.99001,1.288988 -1.15331,0.47489 -2.46491,0.47489 -1.3116,0 -2.46491,-0.47489 -1.1533,-0.47489 -2.01263,-1.288988 -0.83671,-0.814097 -1.33421,-1.922175 -0.47489,-1.130691 -0.47489,-2.419679 z m 6.28664,3.414687 q 1.35683,0 2.30661,-0.995008 0.94978,-0.995008 0.94978,-2.419679 0,-1.447284 -0.94978,-2.442292 -0.94978,-0.995008 -2.30661,-0.995008 -1.35683,0 -2.30661,0.995008 -0.94978,0.995008 -0.94978,2.442292 0,1.424671 0.94978,2.419679 0.94978,0.995008 2.30661,0.995008 z"
         style="font-style:normal;font-variant:normal;font-weight:bold;font-stretch:normal;font-size:22.61382103px;font-family:'Red Hat Display';-inkscape-font-specification:'Red Hat Display Bold';fill:#3c3c3c;fill-opacity:1;stroke-width:0.26500574"
         id="path842"
         inkscape:connector-curvature="0" />
      <path
         d="M 196.70438,39.000763 V 27.218962 h 3.0981 v 0.881939 q 0.63319,-0.542732 1.40205,-0.814097 0.76887,-0.29398 1.67343,-0.29398 1.13069,0 2.03524,0.47489 0.92717,0.452277 1.51513,1.288988 0.70103,-0.859325 1.69603,-1.311602 0.99501,-0.452276 2.19354,-0.452276 1.96741,0 3.23378,1.311602 1.26638,1.311601 1.26638,3.369459 v 7.326878 h -3.0981 v -6.874602 q 0,-1.108077 -0.61057,-1.786492 -0.58796,-0.678414 -1.60558,-0.678414 -0.70103,0 -1.28899,0.316593 -0.56535,0.29398 -0.97239,0.859326 0.0226,0.203524 0.0452,0.407048 0.0226,0.203525 0.0226,0.429663 v 7.326878 h -3.0981 v -6.874602 q 0,-1.108077 -0.61057,-1.786492 -0.58796,-0.678414 -1.60558,-0.678414 -0.70103,0 -1.24376,0.271366 -0.54273,0.271366 -0.94978,0.791483 v 8.276659 z"
         style="font-style:normal;font-variant:normal;font-weight:bold;font-stretch:normal;font-size:22.61382103px;font-family:'Red Hat Display';-inkscape-font-specification:'Red Hat Display Bold';fill:#3c3c3c;fill-opacity:1;stroke-width:0.26500574"
         id="path844"
         inkscape:connector-curvature="0" />
    </g>
    <flowRoot
       xml:space="preserve"
       id="flowRoot833"
       style="font-style:normal;font-weight:normal;font-size:40px;line-height:1.25;font-family:sans-serif;letter-spacing:0px;word-spacing:0px;fill:#000000;fill-opacity:1;stroke:none"
       transform="matrix(0.26463424,0,0,0.26458334,-0.01278731,-0.99999956)"><flowRegion
         id="flowRegion835"><rect
           id="rect837"
           width="140.88148"
           height="40.037369"
           x="258.24103"
           y="76.597488" /></flowRegion><flowPara
         id="flowPara839" /></flowRoot>  </g>
  <g
     lc:layername="L"
     lc:is_locked="false"
     lc:is_construction="false"
     id="g12"
     style="fill:none;stroke:#000000;stroke-width:1"
     transform="translate(-66.471422,-22.283333)" />
</svg>
