<?xml version="1.0" encoding="UTF-8" standalone="no"?>
<svg
   xmlns:dc="http://purl.org/dc/elements/1.1/"
   xmlns:cc="http://creativecommons.org/ns#"
   xmlns:rdf="http://www.w3.org/1999/02/22-rdf-syntax-ns#"
   xmlns:svg="http://www.w3.org/2000/svg"
   xmlns="http://www.w3.org/2000/svg"
   xmlns:sodipodi="http://sodipodi.sourceforge.net/DTD/sodipodi-0.dtd"
   xmlns:inkscape="http://www.inkscape.org/namespaces/inkscape"
   width="11.999999mm"
   height="1.253883mm"
   viewBox="0 0 34.015734 3.5543186"
   version="1.2"
   id="svg9209"
   inkscape:version="0.91 r13725"
   sodipodi:docname="levidrone-com.svg">
  <metadata
     id="metadata9249">
    <rdf:RDF>
      <cc:Work
         rdf:about="">
        <dc:format>image/svg+xml</dc:format>
        <dc:type
           rdf:resource="http://purl.org/dc/dcmitype/StillImage" />
        <dc:title>Qt Svg Document</dc:title>
      </cc:Work>
    </rdf:RDF>
  </metadata>
  <sodipodi:namedview
     pagecolor="#ffffff"
     bordercolor="#666666"
     borderopacity="1"
     objecttolerance="10"
     gridtolerance="10"
     guidetolerance="10"
     inkscape:pageopacity="0"
     inkscape:pageshadow="2"
     inkscape:window-width="1867"
     inkscape:window-height="1056"
     id="namedview9247"
     showgrid="false"
     inkscape:zoom="14.481547"
     inkscape:cx="8.8001433"
     inkscape:cy="-4.4982572"
     inkscape:window-x="53"
     inkscape:window-y="24"
     inkscape:window-maximized="1"
     inkscape:current-layer="layer1"
     inkscape:document-units="mm"
     units="mm"
     fit-margin-top="0"
     fit-margin-left="0"
     fit-margin-right="0"
     fit-margin-bottom="0" />
  <title
     id="title9211">Qt Svg Document</title>
  <desc
     id="desc9213">Generated with Qt</desc>
  <defs
     id="defs9215">
    <linearGradient
       id="linearGradient9666">
      <stop
         style="stop-color:#000000;stop-opacity:1;"
         offset="0"
         id="stop9668" />
      <stop
         style="stop-color:#000000;stop-opacity:0;"
         offset="1"
         id="stop9670" />
    </linearGradient>
  </defs>
  <g
     style="font-style:normal;font-weight:400;font-size:11px;font-family:Ubuntu;fill:#000000;fill-opacity:1;fill-rule:evenodd;stroke:none"
     id="g9227"
     font-style="normal"
     font-weight="400"
     font-size="11"
     transform="matrix(0.99990677,0,0,0.99990677,-6.9209259e-7,-9839.527)" />
  <g
     inkscape:groupmode="layer"
     id="layer1"
     inkscape:label="SilkS">
    <g
       style="font-style:normal;font-weight:normal;font-size:4.98539257px;line-height:80.00000119%;font-family:'Exo 2';-inkscape-font-specification:'Exo 2';letter-spacing:0px;word-spacing:0px;fill:#000000;fill-opacity:1;stroke:none"
       id="text3099">
      <path
         d="m 0.74996717,0.04958752 0,2.56747718 q 0,0.1346056 0.0598247,0.1944303 0.0648101,0.059825 0.20938652,0.059825 l 1.181538,0 0.034898,0.5783055 q -0.5035247,0.054839 -1.45573467,0.054839 -0.39883141,0 -0.59326172,-0.1994157 Q -0.0078125,3.1056332 -0.0078125,2.7716119 l 0,-2.72202438 0.75777967,0 z"
         style="font-weight:800;line-height:80.00000119%;-inkscape-font-specification:'Exo 2 Ultra-Bold'"
         id="path5318" />
      <path
         d="m 4.8848482,2.8962467 0.034898,0.5583639 q -0.4686269,0.049854 -1.5953256,0.049854 -0.3439921,0 -0.5483932,-0.1844596 Q 2.571626,3.1305601 2.5666406,2.811495 l 0,-2.08389409 Q 2.571626,0.40853578 2.7760271,0.22407626 2.9804282,0.03463134 3.3244203,0.03463134 q 1.1266987,0 1.5953256,0.04985392 l -0.034898,0.56334937 -1.3211291,0 q -0.1246348,0 -0.1794741,0.0598247 -0.054839,0.0598247 -0.054839,0.19443031 l 0,0.52346625 1.3709829,0 0,0.5483931 -1.3709829,0 0,0.6630573 q 0,0.139591 0.054839,0.1994157 0.054839,0.059825 0.1794741,0.059825 l 1.3211291,0 z"
         style="font-weight:800;line-height:80.00000119%;-inkscape-font-specification:'Exo 2 Ultra-Bold'"
         id="path5320" />
      <path
         d="M 8.2558306,0.04958752 7.3235622,3.2801219 q -0.024927,0.094723 -0.099708,0.1545472 -0.069795,0.054839 -0.1695034,0.054839 l -0.6929696,0 q -0.099708,0 -0.1744887,-0.054839 -0.069795,-0.059825 -0.094722,-0.1545472 l -0.9372538,-3.23053438 0.7827067,0 0.623174,2.48272548 q 0.049854,0.1994157 0.084752,0.3838752 l 0.1246348,0 q 0.014956,-0.094722 0.084752,-0.3838752 l 0.6181887,-2.48272548 0.7827066,0 z"
         style="font-weight:800;line-height:80.00000119%;-inkscape-font-specification:'Exo 2 Ultra-Bold'"
         id="path5322" />
      <path
         d="m 9.3469741,3.4895084 -0.7577797,0 0,-3.43992088 0.7577797,0 0,3.43992088 z"
         style="font-weight:800;line-height:80.00000119%;-inkscape-font-specification:'Exo 2 Ultra-Bold'"
         id="path5324" />
      <path
         d="m 10.13451,3.4895084 0,-3.43992088 q 0.648101,-0.04486854 1.226406,-0.04486854 0.742824,0 1.041947,0.38886062 0.299124,0.38387523 0.299124,1.3759684 0,0.9920931 -0.299124,1.3809537 -0.299123,0.3838752 -1.041947,0.3838752 -0.578305,0 -1.226406,-0.044868 z m 0.438714,-3.0959288 0,2.7469513 q 0.448686,0.00997 0.787692,0.00997 0.493554,0 0.687985,-0.2991236 0.19443,-0.3041089 0.19443,-1.0818301 0,-0.77772129 -0.19443,-1.08183023 -0.194431,-0.30410895 -0.687985,-0.30410895 -0.319065,0 -0.787692,0.009971 z"
         style="font-size:4.98539257px"
         id="path5326" />
      <path
         d="m 15.543454,3.4895084 -0.468627,0 -0.304109,-1.0768448 Q 14.705908,2.2182333 14.596229,2.138467 14.48655,2.0537153 14.312062,2.0537153 q -0.174489,0 -0.428744,0 -0.24927,-0.00499 -0.329036,-0.00499 l 0,1.4407785 -0.433729,0 0,-3.43992088 q 0.418773,-0.04486854 1.186523,-0.04486854 0.613203,0 0.862473,0.21437188 0.24927,0.20938649 0.24927,0.77772125 0,0.42375839 -0.149562,0.63314489 -0.144576,0.2093864 -0.483583,0.254255 l 0,0.024927 q 0.139591,0.034898 0.254255,0.164518 0.114664,0.1246348 0.169503,0.3290359 l 0.334022,1.0868156 z m -1.989172,-1.8146829 0.742823,0 q 0.388861,-0.00499 0.533437,-0.139591 0.144577,-0.1346056 0.144577,-0.5134954 0,-0.37390447 -0.144577,-0.50352468 -0.144576,-0.1346056 -0.533437,-0.1346056 -0.548393,0 -0.742823,0.004985 l 0,1.28623129 z"
         style="font-size:4.98539257px"
         id="path5328" />
      <path
         d="m 16.096503,0.37862343 q 0.304109,-0.39384602 1.061889,-0.39384602 0.757779,0 1.056903,0.39384602 0.299124,0.38886062 0.299124,1.39092457 0,1.0020639 -0.299124,1.3959099 -0.299124,0.3888606 -1.056903,0.3888606 -0.75778,0 -1.061889,-0.3888606 -0.299123,-0.393846 -0.299123,-1.3959099 0,-1.00206395 0.299123,-1.39092457 z m 1.764829,0.30410894 q -0.19443,-0.30410894 -0.70294,-0.30410894 -0.50851,0 -0.702941,0.30410894 -0.19443,0.29912356 -0.19443,1.08681563 0,0.787692 0.19443,1.0918009 0.194431,0.2991236 0.702941,0.2991236 0.50851,0 0.70294,-0.2991236 0.19443,-0.3041089 0.19443,-1.0918009 0,-0.78769207 -0.19443,-1.08681563 z"
         style="font-size:4.98539257px"
         id="path5330" />
      <path
         d="m 21.579759,0.04958752 0,3.26543218 q 0,0.1744887 -0.169503,0.1744887 l -0.428744,0 q -0.134605,0 -0.19443,-0.139591 L 19.625485,0.91206043 Q 19.455982,0.54314138 19.431055,0.45838971 l -0.07977,0 q 0.01994,0.1994157 0.01994,0.45367072 l 0,2.57744797 -0.438714,0 0,-3.26543214 q 0,-0.17448874 0.174489,-0.17448874 l 0.413787,0 q 0.134606,0 0.19443,0.13959099 L 20.841921,2.5672108 Q 20.966556,2.811495 21.076235,3.06575 l 0.08475,0 Q 21.14603,2.7965388 21.14603,2.5422838 l 0,-2.49269628 0.433729,0 z"
         style="font-size:4.98539257px"
         id="path5332" />
      <path
         d="m 24.157822,3.1255747 0.01994,0.3390067 q -0.458656,0.029912 -1.475676,0.029912 -0.304109,0 -0.483583,-0.1595326 Q 22.044016,3.1704433 22.03903,2.8962467 l 0,-2.25339747 q 0.005,-0.27419659 0.179475,-0.43372915 0.179474,-0.16451796 0.483583,-0.16451796 1.01702,0 1.475676,0.02991236 l -0.01994,0.34399209 -1.380954,0 q -0.299123,0 -0.299123,0.32903591 l 0,0.74780892 1.485647,0 0,0.3539628 -1.485647,0 0,0.9422392 q 0,0.3340213 0.299123,0.3340213 l 1.380954,0 z"
         style="font-size:4.98539257px"
         id="path5334" />
      <path
         d="m 24.928299,2.9012321 0.139591,0 q 0.08974,0 0.124635,0.034898 0.0349,0.034898 0.0349,0.1246348 l 0,0.2692112 q 0,0.089737 -0.0349,0.1246348 -0.0349,0.034898 -0.124635,0.034898 l -0.139591,0 q -0.08475,0 -0.124635,-0.034898 -0.0349,-0.034898 -0.0349,-0.1246348 l 0,-0.2692112 q 0,-0.089737 0.0349,-0.1246348 0.03988,-0.034898 0.124635,-0.034898 z"
         style="font-size:4.98539257px"
         id="path5336" />
      <path
         d="m 27.582354,3.1405309 0.04487,0.2841674 q -0.358948,0.1246348 -0.83256,0.1246348 -0.62816,0 -0.892386,-0.2841674 -0.25924,-0.2891527 -0.25924,-0.9920931 0,-0.7029403 0.25924,-0.9871077 0.264226,-0.2841674 0.897371,-0.2841674 0.478598,0 0.782707,0.114664 l -0.05484,0.2741966 q -0.329036,-0.029912 -0.658071,-0.029912 -0.438715,0 -0.608218,0.1944303 -0.169504,0.1944303 -0.169504,0.7178965 0,0.5284516 0.169504,0.7228819 0.169503,0.1944303 0.608218,0.1944303 0.398831,0 0.712911,-0.049854 z"
         style="font-size:4.98539257px"
         id="path5338" />
      <path
         d="m 28.968622,1.0017975 q 0.628159,0 0.882414,0.2891528 0.259241,0.2891527 0.259241,0.9871077 0,0.697955 -0.259241,0.9871077 -0.254255,0.2891528 -0.882414,0.2891528 -0.623174,0 -0.882415,-0.2891528 -0.25924,-0.2891527 -0.25924,-0.9871077 0,-0.697955 0.25924,-0.9871077 0.259241,-0.2891528 0.882415,-0.2891528 z m 0.548393,0.5533786 q -0.149562,-0.1944303 -0.548393,-0.1944303 -0.398832,0 -0.548393,0.1944303 -0.149562,0.1944303 -0.149562,0.7228819 0,0.5284516 0.149562,0.7228819 0.149561,0.1944303 0.548393,0.1944303 0.398831,0 0.548393,-0.1944303 0.154547,-0.1944303 0.154547,-0.7228819 0,-0.5284516 -0.154547,-0.7228819 z"
         style="font-size:4.98539257px"
         id="path5340" />
      <path
         d="m 30.752519,1.0616222 0.02493,0.3838752 q 0.513495,-0.4436999 0.992093,-0.4436999 0.50851,0 0.613203,0.4287438 0.493554,-0.4287438 0.977137,-0.4287438 0.31408,0 0.478598,0.1695033 0.169503,0.1695034 0.169503,0.4985393 l 0,1.8196683 -0.418773,0 0,-1.7000189 q -0.005,-0.2243426 -0.09472,-0.3240505 -0.08475,-0.1046932 -0.284168,-0.1046932 -0.174489,0 -0.339006,0.079766 -0.159533,0.079766 -0.458657,0.2991236 l 0,1.7498728 -0.408802,0 0,-1.7000189 q 0,-0.229328 -0.09472,-0.3290359 -0.08974,-0.099708 -0.284168,-0.099708 -0.174488,0 -0.339006,0.079766 -0.159533,0.079766 -0.458656,0.2941382 l 0,1.7548582 -0.423759,0 0,-2.4278862 0.348978,0 z"
         style="font-size:4.98539257px"
         id="path5342" />
    </g>
  </g>
  <flowRoot
     xml:space="preserve"
     id="flowRoot3113"
     style="font-style:normal;font-weight:normal;font-size:40px;line-height:125%;font-family:Sans;letter-spacing:0px;word-spacing:0px;fill:#000000;fill-opacity:1;stroke:none;stroke-width:1px;stroke-linecap:butt;stroke-linejoin:miter;stroke-opacity:1"
     transform="matrix(0.99990677,0,0,0.99990677,-6.9209259e-7,-9839.527)"><flowRegion
       id="flowRegion3115"><rect
         id="rect3117"
         width="1427.4718"
         height="567.89514"
         x="-117.11456"
         y="6449.2563" /></flowRegion><flowPara
       id="flowPara3119" /></flowRoot></svg>
